HIERARCHY
ROOT hips
{
  OFFSET 0 9.313263304106702 1.2146308026317778
  CHANNELS 6 Xposition Yposition Zposition Yrotation Xrotation Zrotation
  JOINT spine
  {
    OFFSET -6.402521e-31 0.5173342420023708 0
    CHANNELS 3 Yrotation Xrotation Zrotation
    JOINT chest
    {
      OFFSET 0 1.130544299341115 0
      CHANNELS 3 Yrotation Xrotation Zrotation
      JOINT upperChest
      {
        OFFSET 0 1.0863555061129995 0
        CHANNELS 3 Yrotation Xrotation Zrotation
        JOINT neck
        {
          OFFSET 0 1.3773706506454462 0
          CHANNELS 3 Yrotation Xrotation Zrotation
          JOINT head
          {
            OFFSET 0 0.7374408940073979 0
            CHANNELS 3 Yrotation Xrotation Zrotation
            JOINT leftEye
            {
              OFFSET 0.25066580148932727 0.6408406698778757 0.15963719178883284
              CHANNELS 3 Yrotation Xrotation Zrotation
              End Site
              {
                OFFSET 0.25066580148932727 0.6408406698778757 0.15963719178883284
              }
            }
            JOINT rightEye
            {
              OFFSET -0.25066576739704244 0.6408406384191823 0.15963727561643756
              CHANNELS 3 Yrotation Xrotation Zrotation
              End Site
              {
                OFFSET -0.25066576739704244 0.6408406384191823 0.15963727561643756
              }
            }
          }
        }
        JOINT leftShoulder
        {
          OFFSET 0.3761817444281191 1.0539491987447769 0
          CHANNELS 3 Yrotation Xrotation Zrotation
          JOINT leftUpperArm
          {
            OFFSET 0.8702844380000002 0 0
            CHANNELS 3 Yrotation Xrotation Zrotation
            JOINT leftLowerArm
            {
              OFFSET 2.198527310000323 0 0
              CHANNELS 3 Yrotation Xrotation Zrotation
              JOINT leftHand
              {
                OFFSET 2.146852313968281 0 0
                CHANNELS 3 Yrotation Xrotation Zrotation
                JOINT leftIndexProximal
                {
                  OFFSET 0.6585177834681599 0.07380250427007962 0.18382213159631788
                  CHANNELS 3 Yrotation Xrotation Zrotation
                  JOINT leftIndexIntermediate
                  {
                    OFFSET 0.3323021288626682 -0.009606893929485771 -0.012820872253340998
                    CHANNELS 3 Yrotation Xrotation Zrotation
                    JOINT leftIndexDistal
                    {
                      OFFSET 0.2045908926985518 -0.0071133989147997845 -0.006828784783599051
                      CHANNELS 3 Yrotation Xrotation Zrotation
                      End Site
                      {
                        OFFSET 0.2045908926985518 -0.0071133989147997845 -0.006828784783599051
                      }
                    }
                  }
                }
                JOINT leftLittleProximal
                {
                  OFFSET 0.6110054258835662 0.07380246363125398 -0.29175655876064077
                  CHANNELS 3 Yrotation Xrotation Zrotation
                  JOINT leftLittleIntermediate
                  {
                    OFFSET 0.3144281999999998 -2.5124724523095665e-9 1.8658118799974588e-7
                    CHANNELS 3 Yrotation Xrotation Zrotation
                    JOINT leftLittleDistal
                    {
                      OFFSET 0.18116185580251631 0.002815456192251098 0.0034826415518049436
                      CHANNELS 3 Yrotation Xrotation Zrotation
                      End Site
                      {
                        OFFSET 0.18116185580251631 0.002815456192251098 0.0034826415518049436
                      }
                    }
                  }
                }
                JOINT leftMiddleProximal
                {
                  OFFSET 0.6637478005691111 0.07380246480054087 0.02046981859247815
                  CHANNELS 3 Yrotation Xrotation Zrotation
                  JOINT leftMiddleIntermediate
                  {
                    OFFSET 0.3705733999999994 -2.9611069152224445e-9 9.35054791928458e-8
                    CHANNELS 3 Yrotation Xrotation Zrotation
                    JOINT leftMiddleDistal
                    {
                      OFFSET 0.22861063500000056 -1.82673876025774e-9 -1.6740782024515788e-7
                      CHANNELS 3 Yrotation Xrotation Zrotation
                      End Site
                      {
                        OFFSET 0.22861063500000056 -1.82673876025774e-9 -1.6740782024515788e-7
                      }
                    }
                  }
                }
                JOINT leftRingProximal
                {
                  OFFSET 0.6561845547265777 0.07380246406440083 -0.13588087571513918
                  CHANNELS 3 Yrotation Xrotation Zrotation
                  JOINT leftRingIntermediate
                  {
                    OFFSET 0.3437531000000005 -2.746796123886952e-9 1.4935781944558357e-7
                    CHANNELS 3 Yrotation Xrotation Zrotation
                    JOINT leftRingDistal
                    {
                      OFFSET 0.1983118991198174 -0.002467117924596085 -0.004538141969590015
                      CHANNELS 3 Yrotation Xrotation Zrotation
                      End Site
                      {
                        OFFSET 0.1983118991198174 -0.002467117924596085 -0.004538141969590015
                      }
                    }
                  }
                }
                JOINT leftThumbProximal
                {
                  OFFSET 0.09767004258864787 -0.14930060425447422 -0.07008212897521154
                  CHANNELS 3 Yrotation Xrotation Zrotation
                  JOINT leftThumbIntermediate
                  {
                    OFFSET 0.36682123028154767 -0.015768465060082004 0.28693641268151077
                    CHANNELS 3 Yrotation Xrotation Zrotation
                    JOINT leftThumbDistal
                    {
                      OFFSET 0.21091084272403915 -0.016756648201192714 0.1933767059105508
                      CHANNELS 3 Yrotation Xrotation Zrotation
                      End Site
                      {
                        OFFSET 0.21091084272403915 -0.016756648201192714 0.1933767059105508
                      }
                    }
                  }
                }
              }
            }
          }
        }
        JOINT rightShoulder
        {
          OFFSET -0.37618174442811925 1.0539491987447769 0
          CHANNELS 3 Yrotation Xrotation Zrotation
          JOINT rightUpperArm
          {
            OFFSET -0.870284438 0 0
            CHANNELS 3 Yrotation Xrotation Zrotation
            JOINT rightLowerArm
            {
              OFFSET -2.1985273100003235 0 0
              CHANNELS 3 Yrotation Xrotation Zrotation
              JOINT rightHand
              {
                OFFSET -2.1468523139682802 0 0
                CHANNELS 3 Yrotation Xrotation Zrotation
                JOINT rightIndexProximal
                {
                  OFFSET -0.6585177834681599 0.07380250427007962 0.18382213159631788
                  CHANNELS 3 Yrotation Xrotation Zrotation
                  JOINT rightIndexIntermediate
                  {
                    OFFSET -0.3323021288626682 -0.009606893929485771 -0.012820872253340998
                    CHANNELS 3 Yrotation Xrotation Zrotation
                    JOINT rightIndexDistal
                    {
                      OFFSET -0.2045908926985518 -0.0071133989147997845 -0.006828784783599051
                      CHANNELS 3 Yrotation Xrotation Zrotation
                      End Site
                      {
                        OFFSET -0.2045908926985518 -0.0071133989147997845 -0.006828784783599051
                      }
                    }
                  }
                }
                JOINT rightLittleProximal
                {
                  OFFSET -0.6110054258835662 0.07380246363125398 -0.29175655876064077
                  CHANNELS 3 Yrotation Xrotation Zrotation
                  JOINT rightLittleIntermediate
                  {
                    OFFSET -0.3144281999999998 -2.5124724523095665e-9 1.8658118799974588e-7
                    CHANNELS 3 Yrotation Xrotation Zrotation
                    JOINT rightLittleDistal
                    {
                      OFFSET -0.18116185580251631 0.002815456192251098 0.0034826415518049436
                      CHANNELS 3 Yrotation Xrotation Zrotation
                      End Site
                      {
                        OFFSET -0.18116185580251631 0.002815456192251098 0.0034826415518049436
                      }
                    }
                  }
                }
                JOINT rightMiddleProximal
                {
                  OFFSET -0.6637478005691111 0.07380246480054087 0.02046981859247815
                  CHANNELS 3 Yrotation Xrotation Zrotation
                  JOINT rightMiddleIntermediate
                  {
                    OFFSET -0.3705733999999994 -2.9611069152224445e-9 9.35054791928458e-8
                    CHANNELS 3 Yrotation Xrotation Zrotation
                    JOINT rightMiddleDistal
                    {
                      OFFSET -0.22861063500000056 -1.82673876025774e-9 -1.6740782024515788e-7
                      CHANNELS 3 Yrotation Xrotation Zrotation
                      End Site
                      {
                        OFFSET -0.22861063500000056 -1.82673876025774e-9 -1.6740782024515788e-7
                      }
                    }
                  }
                }
                JOINT rightRingProximal
                {
                  OFFSET -0.6561845547265777 0.07380246406440083 -0.13588087571513918
                  CHANNELS 3 Yrotation Xrotation Zrotation
                  JOINT rightRingIntermediate
                  {
                    OFFSET -0.3437531000000005 -2.746796123886952e-9 1.4935781944558357e-7
                    CHANNELS 3 Yrotation Xrotation Zrotation
                    JOINT rightRingDistal
                    {
                      OFFSET -0.1983118991198174 -0.002467117924596085 -0.004538141969590015
                      CHANNELS 3 Yrotation Xrotation Zrotation
                      End Site
                      {
                        OFFSET -0.1983118991198174 -0.002467117924596085 -0.004538141969590015
                      }
                    }
                  }
                }
                JOINT rightThumbProximal
                {
                  OFFSET -0.09767004258864787 -0.14930060425447422 -0.07008212897521154
                  CHANNELS 3 Yrotation Xrotation Zrotation
                  JOINT rightThumbIntermediate
                  {
                    OFFSET -0.36682123028154767 -0.015768465060082004 0.28693641268151077
                    CHANNELS 3 Yrotation Xrotation Zrotation
                    JOINT rightThumbDistal
                    {
                      OFFSET -0.21091084272403915 -0.016756648201192714 0.1933767059105508
                      CHANNELS 3 Yrotation Xrotation Zrotation
                      End Site
                      {
                        OFFSET -0.21091084272403915 -0.016756648201192714 0.1933767059105508
                      }
                    }
                  }
                }
              }
            }
          }
        }
      }
    }
  }
  JOINT leftUpperLeg
  {
    OFFSET 0.7715603 -0.3993844658041501 0
    CHANNELS 3 Yrotation Xrotation Zrotation
    JOINT leftLowerLeg
    {
      OFFSET 0 -3.529830000249343 0
      CHANNELS 3 Yrotation Xrotation Zrotation
      JOINT leftFoot
      {
        OFFSET 0 -4.154939295409685 0.004208579085223096
        CHANNELS 3 Yrotation Xrotation Zrotation
        JOINT leftToes
        {
          OFFSET 0 -0.6353414391261847 1.10414981190622
          CHANNELS 3 Yrotation Xrotation Zrotation
          End Site
          {
            OFFSET 0 -0.6015820691747853 1.10414981190622
          }
        }
      }
    }
  }
  JOINT rightUpperLeg
  {
    OFFSET -0.7715603 -0.3993844658041501 0
    CHANNELS 3 Yrotation Xrotation Zrotation
    JOINT rightLowerLeg
    {
      OFFSET 0 -3.529830000249343 0
      CHANNELS 3 Yrotation Xrotation Zrotation
      JOINT rightFoot
      {
        OFFSET 0 -4.154939295409685 0.004208579085223096
        CHANNELS 3 Yrotation Xrotation Zrotation
        JOINT rightToes
        {
          OFFSET 0 -0.6353414391261847 1.10414981190622
          CHANNELS 3 Yrotation Xrotation Zrotation
          End Site
          {
            OFFSET 0 -0.6015820691747853 1.10414981190622
          }
        }
      }
    }
  }
}
MOTION
Frames: 4
Frame Time: 0.03333333333333333
0.045942440629005425 9.027387445623223 1.4277291660746323 -9.87202927390678 -2.3149537983770614 -3.948500892525498 -1.8383590180350295 1.1850600941895684 -2.016510822536015 -0.6705213741511631 -7.943705674097175 -1.0337340412428737 0 0 0 4.396799741497384 4.343398895359032 -8.707448899512187 0.4671261623084857 -21.146647075646783 -16.184381147113637 0 0 0 0 0 0 1.3466073659305744 2.8382474875101193 -21.863667226888314 -14.47642402624324 0.5301173812777504 -43.55047333554534 -4.985210267411633 -0.000009674742930484021 -0.000003263391795586794 -2.9324377024288384 -8.910287952988725 8.873846765985952 -2.3920615572483865 -1.633268297261228 -18.271606027505083 3.1187840336630437 0.8933339574461843 -31.94130913132875 2.0484907239267187 0.3715005407005908 -20.493408668553148 9.98877108232637 -6.241548876520818 -29.319825413249166 3.146019768535955 1.0655219414908197 -33.05012184479296 2.640153216048387 0.7340289727192113 -27.03492503292582 3.8040018849418047 0.1998232721801329 -21.071223931123395 2.9903710938020276 0.8161528703086329 -30.572940871759247 2.5523554053179076 0.5830489908387247 -25.73253504640122 7.328820431272377 1.9331758349472696 -27.97456157429816 3.3381906935432446 1.041312406282213 -34.627705038296774 3.413302635096848 1.0940570293284186 -35.52187047247689 -3.382110818716726 -4.2330718929684314 22.341412930251536 13.167793631724564 17.410438176539387 -10.195841212674853 -15.122693141279019 -18.231241439353003 19.791752275255686 -2.495931239545203 2.1781252885463465 9.624315256122786 -19.805139319047623 5.385662724829102 70.44353304297279 9.515668097282594 -5.412973799052782e-7 -0.000004362272929143685 6.556342020859831 16.667924050050562 -5.564110893382545 6.153059025957206 -1.1878571227150247 8.404408337691581 -2.7555362130991243 0.9136624342385133 36.57896232762458 -2.169277917821484 0.5291088180715047 27.545178964381627 -16.61779159758175 -9.705866652969542 26.635374773888586 -2.3112314909115304 0.5758764451443108 30.73616700282561 -1.9073079079674078 0.3396021956319876 23.24278458867157 1.0310877848335935 -1.7456419725373256 23.033519699529112 -2.5707181984708014 0.8098161113773621 34.74181388387983 -2.242918488827945 0.5524602474131215 28.190799531181927 -3.7290155110027365 0.15520533974617803 30.306891725609155 -2.741893131285009 0.8770012394671316 35.59438509814399 -1.8320738754632093 0.3777132374686524 22.954869690800283 2.2399038216747527 -3.30509314447571 -14.389792927939327 -14.956623330323017 16.611355984049467 1.416433867799583 17.613793497293546 -18.2943518623129 -16.034424896519567 10.204670188294381 -4.379969054759539 7.5048299973309325 6.371048290174053 18.388018767589266 1.7853169016042505 2.8876943630587104 -7.057040499560021 -11.070089517405776 4.733928483172971e-7 -4.388277531284245 -0.0000030158338806758447 -11.763016163360604 -2.108989115828355 -5.186216950909177 1.2680492812766337 11.543439728128615 1.554472704698578 2.108920386267037 2.0553181235170954 13.63773342454443 0.1843067538808984 -4.62833620156969 -4.2784048222746405
0.06860692392696034 9.07458565451882 1.4106563502879237 -10.400332066583683 -2.167657967799159 -4.202663311331973 -2.014687890118572 1.4926595139499417 -1.928220083842263 -0.7664639123173064 -8.149235593199473 -1.0792654921274587 0 0 0 5.05259845227137 5.105174499766724 -9.639391429161494 1.5192219531667939 -22.58132744547068 -16.05464675387059 0 0 0 0 0 0 1.93787444633714 2.9465004733670668 -22.09668125558605 -16.564440152214477 2.0274731936081207 -43.85225885741168 -7.004075285913999 0.000005082920464425959 0.0000033945495248748647 -1.7484959038687302 -6.922126848305418 5.160388838350823 -2.871275716658566 -1.8331827021284715 -17.595250282539354 3.0986795371970524 0.8808165624478695 -31.710483425204767 2.0037800422071674 0.3549968711087971 -20.02864997154213 9.690358269869852 -6.458455908998212 -28.9118932756296 3.1479904583250558 1.0669037999503252 -33.07343984676234 2.6382466596892704 0.7329769306557059 -27.013740701374257 3.5132925557611165 0.09158527184974745 -20.89346871907376 2.9872093338980097 0.81429545781416 -30.537177605735938 2.545816586691897 0.5799031531973311 -25.661777305459335 7.082688331309505 1.790046958918831 -27.730406022798068 3.346572447849961 1.0471124135389465 -34.72691880375512 3.396375987985691 1.0820266836273926 -35.31956929367551 -3.382110818716726 -4.2330718929684314 22.341412930251536 12.638640771885319 17.196221904846173 -10.110043847999965 -16.65634939652611 -18.226130387091676 20.877824697339786 -2.6807197040300452 2.1168053916103005 8.633978335040778 -17.440304765253554 9.509257913133295 70.65055319620318 12.891260231051358 -0.000005194670398158864 0.000006460163540149008 11.27242898979583 16.983576198087754 0.5607795064947071 6.612215011728174 -1.202381904926468 8.061351413378647 -2.746948106915979 0.9073219374697474 36.4480781313698 -2.1561483234915513 0.5223066771874916 27.3637721216815 -16.449934923663726 -9.844088690758994 26.052600094586566 -2.3813255829345037 0.6152427670249343 31.721691448952328 -1.938828243078731 0.3524614352253666 23.660412920107508 1.1745754566578017 -1.9096936748854596 23.986574105600656 -2.5743154419576575 0.8122564943065458 34.79511365117335 -2.242482362393492 0.5522404972096425 28.18477932879216 -3.4590122328971327 -0.024362766902793927 31.110213994034225 -2.8253864878813277 0.9383828369744769 36.865028433945106 -1.818874693128123 0.3720626290777547 22.7788632286605 2.2399038216747527 -3.30509314447571 -14.389792927939327 -15.29867473723577 16.701821927095768 1.4755433690422792 19.387146978839052 -17.966677027731507 -17.548914253068496 10.425539165983853 -5.226160686394045 8.067729712878597 6.070870549575582 18.969934760973626 1.5873445472248107 2.6224860701457393 -4.072069716133012 -13.852364992016744 -0.0009394567451159659 -6.846463333034653 0.30347520299919856 -11.387167231137898 -3.1102402922114485 -4.972374532958032 1.267803279645368 11.998344751915678 1.4177718652020486 2.283470231621134 5.496268000630985 14.782489638374201 0.29579180215930934 -6.357532572801399 -5.426204891688928
0.08886293254115364 9.106604836203834 1.3911647509232097 -10.532184354102142 -1.8898047581435364 -4.230683049151095 -2.207618332796384 1.7331491362300324 -2.084194340864598 -0.858508385222291 -8.28103444105115 -1.231090748049615 0 0 0 5.556215341795883 5.692042747334003 -10.349454886196728 2.12010704568666 -24.1242646005626 -15.653127988641875 0 0 0 0 0 0 2.3036832039736312 3.0293452648285024 -22.407799161906937 -19.16476753497356 4.818672450972289 -43.95010657164852 -10.064972829404878 -0.000027899336318378 0.0000027919202113806173 -2.7320750050474483 -6.196330310433996 1.0083530488955654 -2.9901242337650276 -1.9043776971600215 -17.784126085756053 3.1011627782918865 0.8823531100066302 -31.73889997370738 1.9849541488545395 0.3481746109794412 -19.833431956647164 9.62010114486169 -6.514545470217168 -28.971874140564072 3.1571145378760814 1.0733217753158735 -33.18220450053261 2.6429565502893104 0.7355928411218726 -27.066215173932378 3.428242364579148 0.054472064172463856 -21.1265756965061 2.9901471875088195 0.8160410679808159 -30.570380547507103 2.5412955580752654 0.5777328032015497 -25.612840883930115 6.972959808192492 1.7389889604887074 -27.907507864089855 3.360921473170909 1.0570954575618965 -34.89723512283395 3.3914415755788125 1.078529325319654 -35.26052392577402 -3.382110818716726 -4.2330718929684314 22.341412930251536 12.5225009029253 17.15104067370323 -10.089969187550084 -17.352365934101996 -18.210224702987624 21.39646306568955 -2.8512628675683316 2.075250677933453 7.973554662193849 -14.968887239561006 13.609643228553553 71.05747973041527 15.795332966963604 0.000014837205963272127 0.000005143514865550934 16.557638801630688 13.513749374150095 5.59403320229347 6.261849284702003 -1.3624543440051726 9.310315164292332 -2.7727339059990728 0.9264147608419979 36.84143935684125 -2.146616311131816 0.5173916201653868 27.232227761216762 -16.52085586675896 -9.791026532283738 25.794477667144868 -2.4218606797212994 0.6387142499328737 32.29586240563072 -1.9672841084992674 0.36434403576358154 24.038606392926837 0.7152499880101395 -1.8021552559594123 24.89964164397935 -2.596135798155146 0.8272319894981541 35.119634706344094 -2.2331217583883323 0.5472362995280884 28.054690266635788 -3.649646255271838 0.07599102611742288 31.675531317842253 -2.8886522022943137 0.9868283097765415 37.84195537420058 -1.8185510488923493 0.37193322628210046 22.77451780276964 2.2399038216747527 -3.30509314447571 -14.389792927939327 -15.012148725674745 16.631808098185637 1.4257724717489464 19.43116959117955 -17.977198319918752 -17.574114070995947 10.691232091638225 -6.183467498391789 8.40372543010436 5.503148899918923 19.55895248674958 1.3005611148430731 2.086670505251177 -1.6497866316245682 -16.208774869522756 -0.013917033133862833 -9.384227006154614 1.1582694879329816 -11.135292848899368 -4.3649248930638125 -4.972890386110952 1.2701101139024582 12.881519904428126 1.3549903428130439 2.293445601659246 7.907218628740471 15.498932685340733 0.39318774141263935 -7.463532657402742 -6.264280156502012
0.10625473477623677 9.119307778098365 1.3722020073157752 -10.192323708277616 -1.6125155143324275 -4.187284100532257 -2.39762466918963 1.8828758318102647 -2.3062068674929277 -0.9486496931724338 -8.314897868788206 -1.4506642144842552 0 0 0 5.879661844178362 6.156003461049042 -10.851249397487784 2.2441527509883508 -25.469459506631512 -15.121546754050895 0 0 0 0 0 0 2.3018947650788832 3.0545784552392425 -22.711976700572386 -21.708925538882703 7.840246462599111 -44.13501568799911 -13.294759539980895 -0.000016110442356467655 -9.94493802245016e-7 -4.656047058110126 -7.121896368211303 -1.6369261956908372 -2.8482107315492082 -1.9422869678428232 -18.393853175814883 3.1172428764621425 0.8923588829151142 -31.923558519305757 1.978490188861611 0.34586030834249004 -19.766328287505857 9.697668238826331 -6.464940103906169 -29.238543948705114 3.1692454260594296 1.0819248529638557 -33.32691432421609 2.646434956464867 0.7375170323873813 -27.1049916537191 3.456219806478282 0.057677288723445116 -21.492659116964333 2.9964146856323683 0.8197287319873442 -30.64139246733105 2.5361524162432545 0.5752709289939213 -25.557258889782734 6.984835938883753 1.7569145954244885 -28.186699578261084 3.3752784378830825 1.0671475946015736 -35.068004743519495 3.3901485256011417 1.0776213897720213 -35.245229584935174 -3.382110818716726 -4.2330718929684314 22.341412930251536 12.547568760628009 17.16119298120876 -10.093511993125095 -17.180081486866086 -18.228740726362368 21.28353463343945 -2.9848077512023616 2.047805008834006 7.509937628066365 -13.313483186836033 16.695487900866976 71.92415587808237 18.08518343678119 0.000007232746225602744 0.000015465093257379895 18.88491399865017 9.031284364007712 7.496980084104973 5.869043286613077 -1.4881236943708351 10.49557935472326 -2.793456972811021 0.9419567877166475 37.159094014892894 -2.143921494687647 0.5159822493734 27.19497958681592 -16.70244034563322 -9.63585781605614 25.823514886127395 -2.4376361268165097 0.6480176074642897 32.520200175427156 -1.9825859634925709 0.37080912962294243 24.24236663173979 0.2952190684554807 -1.6650482441483077 25.469666183925497 -2.62201896430588 0.8452310281363182 35.506241761976426 -2.224388588929691 0.5426174420077483 27.933312940711293 -3.898820802145178 0.22429622122619655 31.914058374984663 -2.9260148426409422 1.0162403963743643 38.42499826609659 -1.8212722539385553 0.3730906743244884 22.810829882917936 2.2399038216747527 -3.30509314447571 -14.389792927939327 -14.646585371616709 16.53356088611692 1.3622896313368917 18.651178108507338 -18.159504470761757 -16.903568868612062 10.961921426157158 -6.8607465771587375 8.51428078149049 4.672940556661618 19.77104413203591 0.9545787761981184 1.643646773468959 -0.6484449485240736 -17.494909097963443 -0.021046000571277847 -10.473288268744234 1.4202208915734473 -11.04580553321265 -5.286646647434221 -5.0716210358251725 1.347162026997112 13.626576624257423 1.3822931712721864 2.117312463304839 8.923337648141661 15.839863820195232 0.4486104545651158 -7.788821663632517 -6.697360140130759
